# xmcd CD database file
#
# Track frame offsets:
#	150
#	20071
#	39193
#	57652
#	80880
#	100681
#	119632
#	135308
#	161036
#	181281
#	194102
#	210910
#	235800
#	256706
#
# Disc length: 3703 seconds
#
# Revision: 0
# Processed by: cddbd v1.5.1PL2 Copyright (c) Steve Scherf et al.
# Submitted via: CDex 1.51
#
DISCID=c10e750e
DTITLE=Keith Antonisz and Three Wise Monkeys - Promised Land
DYEAR=2004
DGENRE=Blues
TTITLE0=Footprints in the Sand
TTITLE1=Fly Away
TTITLE2=Promised Land
TTITLE3=Show me the Evidence
TTITLE4=Catch the World
TTITLE5=Feeling is Believing
TTITLE6=Warm Heart
TTITLE7=Angels of Luck
TTITLE8=Live and Let live
TTITLE9=Kali
TTITLE10=Complacent
TTITLE11=Song for Anita
TTITLE12=Give Me Air
TTITLE13=End of the Story
EXTD=YEAR: 2004
EXTT0=
EXTT1=
EXTT2=
EXTT3=
EXTT4=
EXTT5=
EXTT6=
EXTT7=
EXTT8=
EXTT9=
EXTT10=
EXTT11=
EXTT12=
EXTT13=
PLAYORDER=
